<svg viewBox="0 0 236 81" fill="none" xmlns="http://www.w3.org/2000/svg">
<path d="M44.1487 56.1984C40.3956 56.1984 37.6958 55.2238 36.0491 53.2747C34.4028 51.3528 33.5929 48.104 33.5929 43.556V31.6443H27.1946V25.2728H41.5034V43.556C41.3611 45.3164 41.7465 47.0793 42.6101 48.6187C43.0676 49.1541 43.6484 49.5695 44.3022 49.8289C44.956 50.0884 45.6631 50.184 46.362 50.1075H52.6759V56.1984H44.1487Z" fill="#FA9917"/>
<path d="M54.1088 41.0199H59.6528C59.9029 41.0199 60.1427 41.1196 60.3196 41.2969C60.4964 41.4742 60.5958 41.7147 60.5958 41.9655V48.7712C60.5958 49.022 60.4964 49.2625 60.3196 49.4398C60.1427 49.6171 59.9029 49.7168 59.6528 49.7168H54.1088C53.8587 49.7168 53.6188 49.6171 53.442 49.4398C53.2651 49.2625 53.1658 49.022 53.1658 48.7712V41.9655C53.1658 41.7147 53.2651 41.4742 53.442 41.2969C53.6188 41.1196 53.8587 41.0199 54.1088 41.0199Z" fill="#156DF2"/>
<path d="M52.3549 21.0234L56.2959 17.3776L41.0367 0.790787L40.9807 0.842685L40.9701 0.831052L0.143066 38.5982L0.26556 38.7316L0.201147 38.7909L15.4603 55.3777L19.4013 51.7319L7.49177 38.7867L40.5572 8.20001L52.3549 21.0234Z" fill="#626262"/>
<path d="M28.7723 60.6522L24.8313 64.298L40.0905 80.8848L40.1465 80.8329L40.157 80.8445L80.9841 43.0742L80.8616 42.9408L80.926 42.8815L65.6721 26.2947L61.7311 29.9405L73.6396 42.8857L40.5741 73.4724L28.7723 60.6522Z" fill="#626262"/>
<path d="M106.876 64.0968C103.489 64.0968 101.051 63.2168 99.5644 61.4569C98.0776 59.7224 97.3468 56.7892 97.3468 52.6838V41.9327H91.5706V36.4337H104.488V52.6848C104.359 54.274 104.707 55.8655 105.486 57.2551C105.9 57.7382 106.424 58.113 107.015 58.3472C107.605 58.5813 108.243 58.6677 108.874 58.5989H114.577V64.0978L106.876 64.0968ZM98.0786 33.1829C97.9794 33.197 97.8782 33.1878 97.7831 33.156C97.688 33.1242 97.6017 33.0706 97.5308 32.9995C97.4599 32.9284 97.4064 32.8418 97.3747 32.7464C97.343 32.6511 97.3338 32.5497 97.3479 32.4501V25.5587C97.3338 25.4592 97.343 25.3578 97.3747 25.2624C97.4064 25.1671 97.4599 25.0804 97.5308 25.0093C97.6017 24.9382 97.688 24.8847 97.7831 24.8528C97.8782 24.821 97.9794 24.8118 98.0786 24.826H103.757C103.856 24.8118 103.957 24.821 104.052 24.8528C104.147 24.8847 104.234 24.9382 104.305 25.0093C104.376 25.0804 104.429 25.1671 104.461 25.2624C104.492 25.3578 104.502 25.4592 104.488 25.5587V32.4501C104.502 32.5497 104.492 32.6511 104.461 32.7464C104.429 32.8418 104.376 32.9284 104.305 32.9995C104.234 33.0706 104.147 33.1242 104.052 33.156C103.957 33.1878 103.856 33.197 103.757 33.1829H98.0786Z" fill="#FA9917"/>
<path d="M149.633 58.0674C148.603 57.3571 147.79 56.3738 147.285 55.2273L146.736 58.547H141.649L141.622 24.8313H147.285V39.762C147.868 38.6722 148.705 37.74 149.724 37.0447C150.687 36.4203 151.818 36.1079 152.963 36.15C154.106 36.1121 155.239 36.3631 156.259 36.8797C157.279 37.3964 158.153 38.1621 158.801 39.1065C160.12 40.9733 160.876 43.7741 160.876 47.5672C160.876 51.1262 160.217 54.0265 158.82 56.0469C158.192 56.9941 157.333 57.7647 156.325 58.2855C155.317 58.8063 154.193 59.06 153.059 59.0225C151.847 59.0589 150.652 58.7259 149.633 58.0674ZM154.152 52.561C154.843 51.006 155.2 49.3228 155.2 47.6206C155.2 45.9184 154.843 44.2353 154.152 42.6803C153.883 42.1429 153.47 41.6911 152.96 41.3753C152.45 41.0595 151.862 40.8921 151.262 40.8918C150.66 40.8942 150.071 41.0623 149.558 41.3777C149.045 41.693 148.628 42.1437 148.353 42.6803C147.65 44.2318 147.286 45.9163 147.286 47.6206C147.286 49.3249 147.65 51.0094 148.353 52.561C148.628 53.0978 149.045 53.5486 149.558 53.8642C150.071 54.1798 150.66 54.348 151.262 54.3506C151.862 54.3498 152.449 54.1821 152.959 53.8661C153.47 53.5501 153.882 53.0983 154.151 52.561H154.152Z" fill="#156DF2"/>
<path d="M162.002 36.8298L166.905 36.8129L167.586 40.0542C168.131 38.9108 169.028 37.9732 170.145 37.3794C171.373 36.7426 172.739 36.4217 174.121 36.4454C174.91 36.4448 175.697 36.5289 176.468 36.6964C177.205 36.9463 177.915 37.2727 178.585 37.6706V42.477C177.945 41.9439 177.207 41.5413 176.413 41.292C175.527 41.0183 174.605 40.885 173.679 40.8971C172.597 40.8744 171.522 41.0699 170.517 41.472C169.664 41.8076 168.933 42.3965 168.422 43.1599C168.098 43.6676 167.881 44.2357 167.782 44.8299C167.623 45.8026 167.558 46.7884 167.588 47.7737L167.651 58.5491H161.999L162.002 36.8298Z" fill="#156DF2"/>
<path d="M178.581 57.0582C177.869 56.3419 177.317 55.4832 176.959 54.5382C176.602 53.5932 176.447 52.5832 176.506 51.5741C176.418 50.5028 176.597 49.4264 177.027 48.4418C177.457 47.4571 178.125 46.5951 178.969 45.9333C180.617 44.7275 183.158 44.1246 186.591 44.1246H190.529V43.1716C190.551 42.7667 190.472 42.3627 190.299 41.996C190.126 41.6293 189.865 41.3114 189.54 41.0708C188.619 40.5349 187.557 40.2909 186.495 40.3708C185.199 40.3771 183.909 40.5468 182.655 40.8759C181.263 41.269 179.922 41.8238 178.659 42.5289V37.6663C179.891 37.157 181.172 36.7725 182.48 36.5185C183.92 36.2533 185.38 36.1232 186.844 36.1299C190.471 36.1299 192.643 37.0246 194 38.3281C195.396 39.7291 196.172 41.8872 196.172 45.9322C196.172 47.3713 196.075 52.1798 196.075 53.1328C196.075 53.6782 196.094 54.2606 196.114 54.6301C196.173 55.1596 196.192 55.6996 196.251 56.03C196.313 56.4699 196.404 56.9052 196.522 57.3335C196.643 57.76 196.817 58.1698 197.039 58.5534H191.388C191.183 58.1648 191.019 57.756 190.898 57.3335C190.778 56.9067 190.693 56.4708 190.645 56.03C189.926 56.9875 188.979 57.7497 187.891 58.2474C186.379 58.9185 184.712 59.1627 183.072 58.9537C181.431 58.7447 179.879 58.0904 178.582 57.0614L178.581 57.0582ZM190.439 53.3626C191.352 51.9564 191.788 50.2922 191.681 48.6176V48.229H189.412C187.886 48.1025 186.353 48.3842 184.97 49.0454C184.537 49.3546 184.193 49.7724 183.972 50.2571C183.75 50.7418 183.66 51.2763 183.71 51.807C183.678 52.245 183.739 52.6848 183.89 53.0972C184.04 53.5096 184.277 53.8852 184.583 54.1992C184.903 54.501 185.282 54.7341 185.695 54.8845C186.109 55.0349 186.548 55.0993 186.987 55.0738C187.66 55.1032 188.329 54.9617 188.932 54.6626C189.536 54.3634 190.054 53.9162 190.439 53.3626Z" fill="#156DF2"/>
<path d="M199.748 55.8775C197.91 53.5279 196.913 50.6272 196.917 47.641C196.92 44.6548 197.925 41.7565 199.768 39.4114C200.798 38.3987 202.026 37.612 203.375 37.1015C204.724 36.591 206.164 36.3679 207.604 36.4465C208.753 36.4421 209.899 36.5761 211.017 36.8457C212.134 37.1317 213.214 37.5464 214.237 38.0814V43.1769C213.422 42.4979 212.506 41.9525 211.522 41.561C210.53 41.1866 209.478 40.9996 208.418 41.0093C207.625 40.9538 206.831 41.0809 206.094 41.3808C205.358 41.6807 204.7 42.1455 204.171 42.7396C203.197 44.193 202.677 45.9042 202.677 47.6551C202.677 49.4059 203.197 51.1171 204.171 52.5705C204.71 53.1563 205.373 53.6139 206.112 53.91C206.85 54.206 207.645 54.3331 208.438 54.2817C209.491 54.2847 210.536 54.0982 211.523 53.7311C212.523 53.3633 213.444 52.8085 214.238 52.0961V57.2107C213.27 57.756 212.233 58.1654 211.154 58.4274C210.014 58.7237 208.84 58.8662 207.663 58.851C206.21 58.9375 204.755 58.7175 203.391 58.2054C202.028 57.6932 200.787 56.9002 199.748 55.8775Z" fill="#156DF2"/>
<path d="M218.247 56.0851C216.327 54.1208 215.357 51.3199 215.357 47.6826C215.357 44.0452 216.268 41.3228 218.13 39.2421C219.094 38.1993 220.274 37.3817 221.588 36.8474C222.902 36.3131 224.317 36.075 225.733 36.15C227.108 36.076 228.483 36.2922 229.769 36.7847C231.056 37.2772 232.224 38.035 233.2 39.0091C235.043 40.9733 235.857 43.7551 235.857 47.1002V49.415H221.136C221.088 50.1262 221.199 50.8392 221.461 51.5019C221.722 52.1647 222.128 52.7606 222.649 53.2461C223.936 54.1759 225.508 54.6234 227.09 54.5105C228.403 54.5056 229.709 54.3156 230.969 53.9461C232.36 53.5087 233.694 52.9081 234.945 52.1565V57.3886C233.644 57.9289 232.292 58.3393 230.911 58.6138C229.513 58.8943 228.089 59.0312 226.664 59.0225C222.882 59.0215 220.186 58.0515 218.247 56.0851ZM230.141 45.1328C230.215 43.8862 229.805 42.6593 228.996 41.7093C228.558 41.3083 228.043 41 227.483 40.8028C226.924 40.6056 226.33 40.5235 225.737 40.5614C225.157 40.5291 224.577 40.6179 224.033 40.8223C223.489 41.0266 222.993 41.342 222.577 41.7485C221.741 42.69 221.256 43.8925 221.204 45.1518L230.141 45.1328Z" fill="#156DF2"/>
<path d="M114.726 36.8361L119.644 36.7557L119.793 39.0471C120.197 38.194 120.864 37.493 121.694 37.0469C122.601 36.5609 123.615 36.3122 124.643 36.3237C125.669 36.3092 126.68 36.5725 127.57 37.0861C127.952 37.2749 128.293 37.5394 128.571 37.8637C128.849 38.188 129.059 38.5653 129.187 38.973C129.655 38.1326 130.347 37.4395 131.185 36.9717C132.13 36.5016 133.177 36.2787 134.231 36.3237C136.538 36.3237 138.108 37.0098 138.941 38.2297C139.869 39.5819 140.249 42.1932 140.249 46.1556L140.327 58.5513H134.675L134.54 44.4794C134.637 43.4041 134.482 42.3211 134.088 41.3164C133.92 41.038 133.677 40.8132 133.386 40.6681C133.096 40.523 132.77 40.4636 132.447 40.4968C132.118 40.4542 131.783 40.5113 131.487 40.6607C131.19 40.8102 130.944 41.0451 130.782 41.3355C130.382 42.3321 130.219 43.4085 130.306 44.4794L130.343 58.5513H124.691L124.668 44.4794C124.744 43.4027 124.582 42.3224 124.191 41.3164C123.997 41.0631 123.747 40.8577 123.462 40.7158C123.176 40.5738 122.862 40.499 122.543 40.4972C122.224 40.4954 121.909 40.5665 121.622 40.7052C121.334 40.8438 121.083 41.0463 120.885 41.2973C120.495 42.3098 120.341 43.398 120.433 44.4794V58.5174H114.724L114.726 36.8361Z" fill="#156DF2"/>
<path d="M178.585 37.6706H178.659V42.5331L178.582 42.4812L178.585 37.6706Z" fill="#156DF2"/>
</svg>
