<svg xmlns="http://www.w3.org/2000/svg" xmlns:xlink="http://www.w3.org/1999/xlink" width="50" height="50" viewBox="0 0 50 50">
  <g>
    <g>
        <path fill="rgb(250,153,23)" fill-rule="evenodd" d="M26.78556701 33.38247423s-3.08041237 0-4.43298969-1.59484536c-.90103093-1.04948454-1.34020619-2.82164949-1.34020619-5.30309279v-6.5H17.5072165V16.5072165h7.82886598v9.9773196c0 1.28453607.20618557 2.21546391.60618557 2.76185566.4.54639176 1.07938144.80824743 2.05360825.80824743h3.45773196v3.32371134l-4.66804124.0041237z"/>
        <path fill="rgb(21,109,242)" fill-rule="evenodd" d="M33.7515464 25.1c1.12203755 0 2.03298968.91095214 2.03298968 2.0329897v.67938143c0 1.12203756-.91095213 2.0329897-2.03298969 2.0329897-1.12203755 0-2.03298969-.91095214-2.03298969-2.0329897v-.67938144c0-1.12203755.91095214-2.03298969 2.0329897-2.03298969z"/>
        <path fill="rgb(98,98,98)" fill-rule="evenodd" d="M31.27525773 14.18762887l2.15670103-1.9886598-8.34948453-9.05154639-.03092784.02886598-.00618557-.0072165L2.70515464 23.77835052l.0670103.07216494-.03505154.0329897 8.34948454 9.05154639 2.15670103-1.98969073-6.51649485-7.06391752 18.0927835-16.69072165 6.45567011 6.99690722z"/>
        <path fill="rgb(98,98,98)" fill-rule="evenodd" d="M18.37113402 35.81237113l-2.15670103 1.9886598 8.34948454 9.05154639.03092783-.02783505.00618557.00618557L46.9412371 26.22164948l-.0670103-.07216494.03505154-.0329897-8.34948454-9.05154639-2.15670103 1.98969073 6.51649485 7.06391752-18.0927835 16.69072165-6.4556701-6.99690722z"/>
    </g>
    <rect width="50" height="50" x="0" y="0" fill="none"/>
  </g>
</svg>
